<?xml version="1.0" encoding="UTF-8" standalone="no"?>
<!-- Created with Inkscape (http://www.inkscape.org/) -->

<svg
   width="512"
   height="512"
   viewBox="0 0 512 512"
   version="1.1"
   id="svg5"
   inkscape:version="1.1.2 (0a00cf5339, 2022-02-04)"
   xmlns:inkscape="http://www.inkscape.org/namespaces/inkscape"
   xmlns:sodipodi="http://sodipodi.sourceforge.net/DTD/sodipodi-0.dtd"
   xmlns="http://www.w3.org/2000/svg"
   xmlns:svg="http://www.w3.org/2000/svg">
  <sodipodi:namedview
     id="namedview7"
     pagecolor="#ffffff"
     bordercolor="#cccccc"
     borderopacity="1"
     inkscape:pageshadow="0"
     inkscape:pageopacity="1"
     inkscape:pagecheckerboard="0"
     inkscape:document-units="px"
     showgrid="false"
     inkscape:zoom="0.64"
     inkscape:cx="247.65625"
     inkscape:cy="286.71875"
     inkscape:window-width="1024"
     inkscape:window-height="712"
     inkscape:window-x="0"
     inkscape:window-y="0"
     inkscape:window-maximized="1"
     inkscape:current-layer="layer1" />
  <defs
     id="defs2">
    <inkscape:perspective
       sodipodi:type="inkscape:persp3d"
       inkscape:vp_x="0 : 256 : 1"
       inkscape:vp_y="0 : 1000 : 0"
       inkscape:vp_z="512 : 256 : 1"
       inkscape:persp3d-origin="256 : 170.66667 : 1"
       id="perspective4832" />
  </defs>
  <g
     inkscape:label="Layer 1"
     inkscape:groupmode="layer"
     id="layer1">
    <path
       style="fill:#ececec;stroke:#000000;stroke-width:1px;stroke-linecap:butt;stroke-linejoin:miter;stroke-opacity:1"
       d="M 93.350147,189.6836 C 186.54935,187.3645 283.85563,298.93821 324.77484,370.7444 l 66.1484,-1.42851 22.57964,-69.74678 C 325.11205,278.32334 224.32964,185.99659 180.41279,84.733017 l -68.65221,35.318563 z"
       id="path8898"
       sodipodi:nodetypes="ccccccc" />
    <path
       style="fill:#ececec;fill-opacity:1;stroke:#000000;stroke-opacity:1"
       id="path8155"
       sodipodi:type="arc"
       sodipodi:cx="132.43869"
       sodipodi:cy="75.863342"
       sodipodi:rx="48.78714"
       sodipodi:ry="48.78714"
       sodipodi:start="2.008481"
       sodipodi:end="0.18282025"
       sodipodi:arc-type="arc"
       d="M 111.76058,120.05158 A 48.78714,48.78714 0 0 1 86.655221,59.009294 48.78714,48.78714 0 0 1 145.34711,28.81488 48.78714,48.78714 0 0 1 180.41279,84.733017"
       sodipodi:open="true" />
    <path
       style="fill:#ececec;fill-opacity:1;stroke:#000000;stroke-opacity:1"
       id="path8155-1"
       sodipodi:type="arc"
       sodipodi:cx="70.735359"
       sodipodi:cy="146.45456"
       sodipodi:rx="48.78714"
       sodipodi:ry="48.78714"
       sodipodi:start="1.0888102"
       sodipodi:end="5.7113371"
       sodipodi:open="true"
       sodipodi:arc-type="arc"
       d="M 93.350147,189.68367 A 48.78714,48.78714 0 0 1 28.202939,170.3539 48.78714,48.78714 0 0 1 45.572917,104.65699 48.78714,48.78714 0 0 1 111.76057,120.05159" />
    <path
       style="fill:#ececec;fill-opacity:1;stroke:#000000;stroke-opacity:1"
       id="path8155-1-2"
       sodipodi:type="arc"
       sodipodi:cx="432.84375"
       sodipodi:cy="344.3588"
       sodipodi:rx="48.78714"
       sodipodi:ry="48.78714"
       sodipodi:start="4.30476"
       sodipodi:end="2.604604"
       sodipodi:arc-type="arc"
       d="m 413.50288,299.56911 a 48.78714,48.78714 0 0 1 63.2552,23.53607 48.78714,48.78714 0 0 1 -20.78747,64.21096 48.78714,48.78714 0 0 1 -65.04736,-18.00024"
       sodipodi:open="true" />
    <path
       style="fill:#ececec;fill-opacity:1;stroke:#000000;stroke-opacity:1"
       id="path8155-1-6"
       sodipodi:type="arc"
       sodipodi:cx="358.62326"
       sodipodi:cy="405.87949"
       sodipodi:rx="48.78714"
       sodipodi:ry="48.78714"
       sodipodi:start="5.4359522"
       sodipodi:end="3.9456395"
       sodipodi:arc-type="arc"
       d="m 390.92324,369.31589 a 48.78714,48.78714 0 0 1 13.51283,53.33774 48.78714,48.78714 0 0 1 -44.75942,32.00162 48.78714,48.78714 0 0 1 -46.09929,-30.0394 48.78714,48.78714 0 0 1 11.19748,-53.87138"
       sodipodi:open="true" />
  </g>
</svg>
