<?xml version="1.0" encoding="UTF-8" standalone="no"?>
<!-- Created with Inkscape (http://www.inkscape.org/) -->

<svg
   xmlns:dc="http://purl.org/dc/elements/1.1/"
   xmlns:cc="http://creativecommons.org/ns#"
   xmlns:rdf="http://www.w3.org/1999/02/22-rdf-syntax-ns#"
   xmlns:svg="http://www.w3.org/2000/svg"
   xmlns="http://www.w3.org/2000/svg"
   xmlns:sodipodi="http://sodipodi.sourceforge.net/DTD/sodipodi-0.dtd"
   xmlns:inkscape="http://www.inkscape.org/namespaces/inkscape"
   width="100"
   height="100"
   viewBox="0 0 26.458333 26.458334"
   version="1.1"
   id="svg4633"
   inkscape:version="0.92.3 (2405546, 2018-03-11)"
   sodipodi:docname="gun.svg">
  <defs
     id="defs4627" />
  <sodipodi:namedview
     id="base"
     pagecolor="#ffffff"
     bordercolor="#666666"
     borderopacity="1.0"
     inkscape:pageopacity="0"
     inkscape:pageshadow="2"
     inkscape:zoom="5.6"
     inkscape:cx="1.0583226"
     inkscape:cy="32.912215"
     inkscape:document-units="px"
     inkscape:current-layer="layer1"
     showgrid="false"
     units="px"
     inkscape:window-width="2493"
     inkscape:window-height="1385"
     inkscape:window-x="67"
     inkscape:window-y="27"
     inkscape:window-maximized="1" />
  <metadata
     id="metadata4630">
    <rdf:RDF>
      <cc:Work
         rdf:about="">
        <dc:format>image/svg+xml</dc:format>
        <dc:type
           rdf:resource="http://purl.org/dc/dcmitype/StillImage" />
        <dc:title />
      </cc:Work>
    </rdf:RDF>
  </metadata>
  <g
     inkscape:label="Layer 1"
     inkscape:groupmode="layer"
     id="layer1"
     transform="translate(0,-270.54165)">
    <path
       style="fill:none;stroke:#000000;stroke-width:0.26458332px;stroke-linecap:butt;stroke-linejoin:miter;stroke-opacity:1"
       d="m 2.4568452,284.95199 1.5591517,10.11086 8.1264881,-5.05543 -3.4017858,-5.33891 10.2053568,-7.74851 -0.661458,-1.18118 3.638021,-2.64583 -1.27567,-1.6064 -19.3712794,12.56771 z"
       id="path5279"
       inkscape:connector-curvature="0" />
    <path
       style="fill:none;stroke:#000000;stroke-width:0.26458332px;stroke-linecap:butt;stroke-linejoin:miter;stroke-opacity:1"
       d="m 10.016369,286.41665 2.456845,-1.65365 -0.377976,-2.74032 -3.354539,2.64583 z"
       id="path5281"
       inkscape:connector-curvature="0" />
    <path
       style="fill:#ffffff;fill-opacity:1;stroke:#383838;stroke-width:3.00000006;stroke-miterlimit:4;stroke-dasharray:none;stroke-opacity:1"
       d="M 15.529778,91.113008 C 15.472898,90.794671 14.17175,82.377964 12.638338,72.409214 10.880611,60.982187 9.7611135,54.185228 9.60893,54.016356 9.4761676,53.869035 8.6013982,53.185999 7.664998,52.498499 6.7285978,51.810999 5.9599158,51.202344 5.9568158,51.145933 5.9537158,51.089522 16.655888,44.098451 29.739421,35.610219 42.822953,27.121987 58.994828,16.624618 65.676921,12.282731 l 12.149258,-7.8943403 0.535715,0.5956777 c 0.294643,0.3276228 1.236207,1.4841391 2.092364,2.5700364 l 1.55665,1.9743588 -6.779864,4.9315664 c -3.728925,2.712362 -6.779865,4.996496 -6.779865,5.075855 0,0.07936 0.532268,1.087662 1.182818,2.240674 1.149916,2.038071 1.173511,2.10516 0.848215,2.411892 -0.899597,0.848261 -24.13977,18.339811 -24.367215,18.339811 -0.295118,0 -13.735246,10.553375 -13.735246,10.785105 0,0.08164 2.8526,4.625075 6.339112,10.096522 5.724215,8.983114 6.308816,9.96908 6.026786,10.164537 -0.238618,0.16537 -27.953054,17.416143 -28.908818,17.994214 -0.129941,0.07859 -0.24106,-0.0863 -0.307053,-0.455632 z"
       id="path814"
       inkscape:connector-curvature="0"
       transform="matrix(0.26458333,0,0,0.26458333,0,270.54165)" />
    <path
       style="fill:#ffffff;fill-opacity:1;stroke:#010101;stroke-width:1.00000002;stroke-miterlimit:4;stroke-dasharray:none;stroke-opacity:1"
       d="m 35.916749,56.344919 -2.065574,-2.829766 5.613645,-4.258327 c 3.087504,-2.34208 5.673925,-4.279931 5.747602,-4.306336 0.07368,-0.02641 0.359215,1.620916 0.634527,3.660714 0.275313,2.039798 0.540799,3.959753 0.589968,4.266566 0.08837,0.551424 0.04243,0.5896 -3.992812,3.318345 -2.245216,1.518277 -4.167615,2.809569 -4.271997,2.869537 -0.105556,0.06064 -1.106517,-1.146859 -2.255359,-2.720733 z"
       id="path816"
       inkscape:connector-curvature="0"
       transform="matrix(0.26458333,0,0,0.26458333,0,270.54165)" />
  </g>
</svg>
