<?xml version="1.0" encoding="UTF-8" standalone="no"?>
<!-- Created with Inkscape (http://www.inkscape.org/) -->

<svg
   xmlns:dc="http://purl.org/dc/elements/1.1/"
   xmlns:cc="http://creativecommons.org/ns#"
   xmlns:rdf="http://www.w3.org/1999/02/22-rdf-syntax-ns#"
   xmlns:svg="http://www.w3.org/2000/svg"
   xmlns="http://www.w3.org/2000/svg"
   xmlns:sodipodi="http://sodipodi.sourceforge.net/DTD/sodipodi-0.dtd"
   xmlns:inkscape="http://www.inkscape.org/namespaces/inkscape"
   width="512"
   height="512"
   viewBox="0 0 512 512"
   version="1.1"
   id="svg5"
   inkscape:version="0.92.5 (2060ec1f9f, 2020-04-08)"
   sodipodi:docname="favour.svg">
  <metadata
     id="metadata8">
    <rdf:RDF>
      <cc:Work
         rdf:about="">
        <dc:format>image/svg+xml</dc:format>
        <dc:type
           rdf:resource="http://purl.org/dc/dcmitype/StillImage" />
        <dc:title></dc:title>
      </cc:Work>
    </rdf:RDF>
  </metadata>
  <sodipodi:namedview
     id="namedview7"
     pagecolor="#ffffff"
     bordercolor="#cccccc"
     borderopacity="1"
     inkscape:pageshadow="0"
     inkscape:pageopacity="1"
     inkscape:pagecheckerboard="0"
     inkscape:document-units="px"
     showgrid="false"
     inkscape:zoom="0.90509668"
     inkscape:cx="209.44753"
     inkscape:cy="232.02989"
     inkscape:window-width="1368"
     inkscape:window-height="836"
     inkscape:window-x="72"
     inkscape:window-y="27"
     inkscape:window-maximized="1"
     inkscape:current-layer="layer1" />
  <defs
     id="defs2" />
  <g
     inkscape:label="Layer 1"
     inkscape:groupmode="layer"
     id="layer1">
    <path
       sodipodi:type="star"
       style="fill:none;fill-opacity:1;stroke:#000000;stroke-width:18.89763832;stroke-linejoin:round;stroke-miterlimit:4;stroke-dasharray:none;stroke-opacity:1"
       id="path831"
       sodipodi:sides="12"
       sodipodi:cx="253.01164"
       sodipodi:cy="266.72235"
       sodipodi:r1="253.80167"
       sodipodi:r2="69.394958"
       sodipodi:arg1="0.51428654"
       sodipodi:arg2="0.77608593"
       inkscape:flatsided="false"
       inkscape:rounded="0"
       inkscape:randomized="0"
       d="M 473.98252,391.57089 302.5361,315.33293 381.95376,485.3298 271.59579,333.58258 255.37507,520.51301 235.67588,333.91708 128.1631,487.69322 204.40107,316.24681 34.404195,395.66447 186.15142,285.3065 -0.77901933,269.08578 185.81691,249.38659 32.040769,141.87381 203.48718,218.11177 124.06952,48.114904 234.42749,199.86213 250.64822,12.931689 270.34741,199.52762 377.86019,45.751477 301.62222,217.19789 471.61909,137.78023 319.87187,248.1382 506.8023,264.35892 320.20637,284.05812 Z"
       transform="matrix(0.95724653,0,0,0.95566806,14.052446,54.71115)" />
    <rect
       style="fill:#ffffff;fill-opacity:1;stroke:none;stroke-width:16.53289604;stroke-linejoin:round;stroke-miterlimit:4;stroke-dasharray:none;stroke-opacity:1"
       id="rect833"
       width="509.01205"
       height="239.59964"
       x="-1.8838739"
       y="323.22363" />
    <path
       style="fill:#ffffff;fill-opacity:1;stroke:none;stroke-width:18.89763832;stroke-linejoin:round;stroke-miterlimit:4;stroke-dasharray:none;stroke-opacity:1"
       id="path835"
       sodipodi:type="arc"
       sodipodi:cx="244.72523"
       sodipodi:cy="366.15921"
       sodipodi:rx="204.95049"
       sodipodi:ry="222.07573"
       sodipodi:start="2.9200057"
       sodipodi:end="0.2145062"
       sodipodi:open="true"
       d="M 44.78581,414.96658 A 204.95049,222.07573 0 0 1 129.03171,182.8498 204.95049,222.07573 0 0 1 359.218,181.96676 204.95049,222.07573 0 0 1 444.97859,413.43135" />
    <path
       style="fill:none;fill-opacity:1;stroke:#000000;stroke-width:36.21229553;stroke-miterlimit:4;stroke-dasharray:none;stroke-opacity:1"
       id="path821"
       sodipodi:type="arc"
       sodipodi:cx="249.50734"
       sodipodi:cy="345.16696"
       sodipodi:rx="195.74895"
       sodipodi:ry="213.23689"
       sodipodi:start="2.9200096"
       sodipodi:end="0.21450602"
       sodipodi:open="true"
       d="m 58.544306,392.03094 a 195.74895,213.23689 0 0 1 80.464144,-222.87779 195.74895,213.23689 0 0 1 219.85153,-0.84746 195.74895,213.23689 0 0 1 81.91007,222.2519" />
  </g>
</svg>
