<?xml version="1.0" encoding="UTF-8" standalone="no"?>
<!-- Created with Inkscape (http://www.inkscape.org/) -->

<svg
   xmlns:dc="http://purl.org/dc/elements/1.1/"
   xmlns:cc="http://creativecommons.org/ns#"
   xmlns:rdf="http://www.w3.org/1999/02/22-rdf-syntax-ns#"
   xmlns:svg="http://www.w3.org/2000/svg"
   xmlns="http://www.w3.org/2000/svg"
   xmlns:sodipodi="http://sodipodi.sourceforge.net/DTD/sodipodi-0.dtd"
   xmlns:inkscape="http://www.inkscape.org/namespaces/inkscape"
   width="512"
   height="512"
   viewBox="0 0 512 512"
   version="1.1"
   id="svg5"
   inkscape:version="0.92.5 (2060ec1f9f, 2020-04-08)"
   sodipodi:docname="free.svg">
  <metadata
     id="metadata9">
    <rdf:RDF>
      <cc:Work
         rdf:about="">
        <dc:format>image/svg+xml</dc:format>
        <dc:type
           rdf:resource="http://purl.org/dc/dcmitype/StillImage" />
        <dc:title></dc:title>
      </cc:Work>
    </rdf:RDF>
  </metadata>
  <sodipodi:namedview
     id="namedview7"
     pagecolor="#ffffff"
     bordercolor="#cccccc"
     borderopacity="1"
     inkscape:pageshadow="0"
     inkscape:pageopacity="1"
     inkscape:pagecheckerboard="0"
     inkscape:document-units="px"
     showgrid="false"
     inkscape:zoom="0.64"
     inkscape:cx="-28.125"
     inkscape:cy="280.46875"
     inkscape:window-width="1368"
     inkscape:window-height="836"
     inkscape:window-x="72"
     inkscape:window-y="27"
     inkscape:window-maximized="1"
     inkscape:current-layer="layer1" />
  <defs
     id="defs2">
    <inkscape:perspective
       sodipodi:type="inkscape:persp3d"
       inkscape:vp_x="0 : 256 : 1"
       inkscape:vp_y="0 : 1000 : 0"
       inkscape:vp_z="512 : 256 : 1"
       inkscape:persp3d-origin="256 : 170.66667 : 1"
       id="perspective4832" />
  </defs>
  <g
     inkscape:label="Layer 1"
     inkscape:groupmode="layer"
     id="layer1">
    <flowRoot
       xml:space="preserve"
       id="flowRoot30"
       style="font-style:normal;font-weight:normal;font-size:40px;line-height:1.25;font-family:sans-serif;letter-spacing:0px;word-spacing:0px;fill:#000000;fill-opacity:1;stroke:none"><flowRegion
         id="flowRegion32"><rect
           id="rect34"
           width="262.5"
           height="251.5625"
           x="15.625"
           y="196.375" /></flowRegion><flowPara
         id="flowPara36"
         style="line-height:7.25">X</flowPara></flowRoot>    <path
       inkscape:connector-curvature="0"
       style="fill:#ececec;stroke:#000000;stroke-width:0.77032721px;stroke-linecap:butt;stroke-linejoin:miter;stroke-opacity:1"
       d="m 66.791065,273.3531 c 71.793885,-1.78647 146.751565,84.1618 178.272745,139.47606 l 50.95592,-1.10042 17.39371,-53.72784 C 245.32358,341.63471 167.68814,270.51289 133.8578,192.5068 l -52.884672,27.20685 z"
       id="path8898"
       sodipodi:nodetypes="ccccccc" />
    <path
       style="fill:#ececec;fill-opacity:1;stroke:#000000;stroke-width:0.77032721;stroke-opacity:1"
       id="path8155"
       sodipodi:type="arc"
       sodipodi:cx="96.902023"
       sodipodi:cy="185.67426"
       sodipodi:rx="37.582062"
       sodipodi:ry="37.582062"
       sodipodi:start="2.008481"
       sodipodi:end="0.18282025"
       sodipodi:arc-type="arc"
       d="m 80.97311,219.71366 a 37.582062,37.582062 0 0 1 -19.339339,-47.02254 37.582062,37.582062 0 0 1 45.211959,-23.25958 37.582062,37.582062 0 0 1 27.01205,43.07527"
       sodipodi:open="true" />
    <path
       style="fill:#ececec;fill-opacity:1;stroke:#000000;stroke-width:0.77032721;stroke-opacity:1"
       id="path8155-1"
       sodipodi:type="arc"
       sodipodi:cx="49.370277"
       sodipodi:cy="240.05258"
       sodipodi:rx="37.582062"
       sodipodi:ry="37.582062"
       sodipodi:start="1.0888102"
       sodipodi:end="5.7113371"
       sodipodi:open="true"
       sodipodi:arc-type="arc"
       d="M 66.791064,273.35315 A 37.582062,37.582062 0 0 1 16.606397,258.46289 37.582062,37.582062 0 0 1 29.986964,207.85478 37.582062,37.582062 0 0 1 80.973115,219.71365" />
    <path
       style="fill:#ececec;fill-opacity:1;stroke:#000000;stroke-width:0.77032721;stroke-opacity:1"
       id="path8155-1-2"
       sodipodi:type="arc"
       sodipodi:cx="328.31223"
       sodipodi:cy="392.5036"
       sodipodi:rx="37.582062"
       sodipodi:ry="37.582062"
       sodipodi:start="4.30476"
       sodipodi:end="2.604604"
       sodipodi:arc-type="arc"
       d="m 313.41343,358.00089 a 37.582062,37.582062 0 0 1 48.7272,18.13047 37.582062,37.582062 0 0 1 -16.01316,49.46345 37.582062,37.582062 0 0 1 -50.10775,-13.86607"
       sodipodi:open="true" />
    <path
       style="fill:#ececec;fill-opacity:1;stroke:#000000;stroke-width:0.77032721;stroke-opacity:1"
       id="path8155-1-6"
       sodipodi:type="arc"
       sodipodi:cx="271.13818"
       sodipodi:cy="439.89468"
       sodipodi:rx="37.582062"
       sodipodi:ry="37.582062"
       sodipodi:start="5.4359522"
       sodipodi:end="3.9456395"
       sodipodi:arc-type="arc"
       d="m 296.01974,411.72875 a 37.582062,37.582062 0 0 1 10.4093,41.08751 37.582062,37.582062 0 0 1 -34.47941,24.65172 37.582062,37.582062 0 0 1 -35.51153,-23.14016 37.582062,37.582062 0 0 1 8.62572,-41.4986"
       sodipodi:open="true" />
    <path
       inkscape:connector-curvature="0"
       style="fill:#ffaaaa;stroke:#000000;stroke-width:1px;stroke-linecap:butt;stroke-linejoin:miter;stroke-opacity:1"
       d="m 327.82708,35.10526 c 123.22996,-3.55136 167.67099,69.5378 168.24633,178.80011 -0.3056,70.85586 -217.81364,82.56216 -321.27572,152.56114 -13.44929,12.58888 43.78662,21.55614 23.18497,33.54588 -27.32194,5.1472 -28.49132,15.01582 -37.24623,20.00151 -26.72887,-99.32218 -75.12191,-79.54589 -101.70384,-116.21905 4.7863,-12.79124 18.39452,-44.31623 47.83144,-18.79635 0,0 0.055,31.21343 27.98476,29.75683 C 226.5689,248.70452 274.71873,36.32554 327.82708,35.10526 Z"
       id="path6220"
       sodipodi:nodetypes="ccccccccc" />
    <ellipse
       style="fill:#cccccc;fill-opacity:1;stroke:#000000;stroke-width:1.01792002;stroke-opacity:1"
       id="path7685"
       cx="-381.052"
       cy="159.71936"
       rx="89.816887"
       ry="102.66481"
       transform="scale(-1,1)" />
    <ellipse
       style="fill:#ffffff;fill-opacity:1;stroke:#000000;stroke-width:0.956725;stroke-opacity:1"
       id="path7843"
       cx="-384.05142"
       cy="157.67009"
       rx="75.494492"
       ry="89.920174"
       transform="scale(-1,1)" />
    <flowRoot
       xml:space="preserve"
       id="flowRoot1134"
       style="font-style:normal;font-weight:normal;font-size:133.33332825px;line-height:1.25;font-family:sans-serif;letter-spacing:0px;word-spacing:0px;fill:#ff0000;fill-opacity:1;stroke:#000000;stroke-opacity:1;"
       transform="matrix(3.6845279,0,0,3.6845279,-125.15176,-322.37049)"><flowRegion
         id="flowRegion1136"
         style="stroke:#000000;stroke-opacity:1;fill:#ff0000;fill-opacity:1;"><rect
           id="rect1138"
           width="196.875"
           height="232.8125"
           x="53.125"
           y="101.0625"
           style="stroke:#000000;stroke-opacity:1;fill:#ff0000;fill-opacity:1;" /></flowRegion><flowPara
         id="flowPara1140">X</flowPara></flowRoot>  </g>
</svg>
