<?xml version="1.0" encoding="UTF-8" standalone="no"?>
<!-- Created with Inkscape (http://www.inkscape.org/) -->

<svg
   xmlns:dc="http://purl.org/dc/elements/1.1/"
   xmlns:cc="http://creativecommons.org/ns#"
   xmlns:rdf="http://www.w3.org/1999/02/22-rdf-syntax-ns#"
   xmlns:svg="http://www.w3.org/2000/svg"
   xmlns="http://www.w3.org/2000/svg"
   xmlns:sodipodi="http://sodipodi.sourceforge.net/DTD/sodipodi-0.dtd"
   xmlns:inkscape="http://www.inkscape.org/namespaces/inkscape"
   width="100"
   height="100"
   viewBox="0 0 26.458333 26.458334"
   version="1.1"
   id="svg4633"
   inkscape:version="0.92.3 (2405546, 2018-03-11)"
   sodipodi:docname="ucho.svg">
  <defs
     id="defs4627" />
  <sodipodi:namedview
     id="base"
     pagecolor="#ffffff"
     bordercolor="#666666"
     borderopacity="1.0"
     inkscape:pageopacity="0.0"
     inkscape:pageshadow="2"
     inkscape:zoom="3.3468818"
     inkscape:cx="66.255984"
     inkscape:cy="6.3170231"
     inkscape:document-units="px"
     inkscape:current-layer="layer1"
     showgrid="false"
     units="px"
     inkscape:window-width="1280"
     inkscape:window-height="915"
     inkscape:window-x="0"
     inkscape:window-y="31"
     inkscape:window-maximized="1" />
  <metadata
     id="metadata4630">
    <rdf:RDF>
      <cc:Work
         rdf:about="">
        <dc:format>image/svg+xml</dc:format>
        <dc:type
           rdf:resource="http://purl.org/dc/dcmitype/StillImage" />
        <dc:title />
      </cc:Work>
    </rdf:RDF>
  </metadata>
  <g
     inkscape:label="Layer 1"
     inkscape:groupmode="layer"
     id="layer1"
     transform="translate(0,-270.54165)">
    <rect
       style="fill:#ffff00;fill-opacity:1;stroke:none;stroke-width:0.29814705;stroke-miterlimit:4;stroke-dasharray:none;stroke-opacity:1"
       id="rect814"
       width="27.599035"
       height="27.132574"
       x="-0.26211977"
       y="270.44565"
       ry="0.15766928" />
    <path
       sodipodi:type="spiral"
       style="fill:none;fill-rule:evenodd;stroke:#000000;stroke-width:1.05833334;stroke-miterlimit:4;stroke-dasharray:none"
       id="path819"
       sodipodi:cx="6.7136273"
       sodipodi:cy="284.13809"
       sodipodi:expansion="1"
       sodipodi:revolution="3"
       sodipodi:radius="6.3339195"
       sodipodi:argument="-17.469591"
       sodipodi:t0="0"
       d="m 6.7136273,284.13809 c 0.060236,0.31181 -0.3905923,0.23503 -0.5182449,0.10012 -0.3459305,-0.36562 -0.05882,-0.93123 0.3180135,-1.13661 0.6740668,-0.36737 1.4773299,0.0794 1.7549662,0.73614 0.4074424,0.96387 -0.2168542,2.03257 -1.1542718,2.37333 -1.2494303,0.45419 -2.5912629,-0.35378 -2.9916875,-1.5724 -0.5038935,-1.53351 0.4903519,-3.15167 1.9905301,-3.61005 1.8169168,-0.55515 3.713052,0.62671 4.2284091,2.40866 0.60733,2.09997 -0.7629253,4.27504 -2.8267888,4.84677 -2.3828121,0.66008 -4.8374368,-0.89905 -5.4651301,-3.24492 -0.713225,-2.66552 1.0351138,-5.40011 3.6630469,-6.08349 2.9481438,-0.76664 5.963004,1.17113 6.701851,4.08118 0.820261,3.2307 -1.307113,6.52605 -4.4993049,7.32021" />
    <path
       sodipodi:type="spiral"
       style="fill:none;fill-rule:evenodd;stroke:#000000;stroke-width:0.79375;stroke-miterlimit:4;stroke-dasharray:none"
       id="path823"
       sodipodi:cx="11.095153"
       sodipodi:cy="277.28311"
       sodipodi:expansion="1"
       sodipodi:revolution="0.40000001"
       sodipodi:radius="14.491611"
       sodipodi:argument="-1.0843749"
       sodipodi:t0="0"
       d="m 11.095153,277.28311 c 2.547404,-4.81733 7.750463,1.05715 8.006718,4.23396 0.340676,4.22338 -2.414774,8.08096 -5.957295,10.112" />
    <path
       sodipodi:type="spiral"
       style="fill:none;fill-rule:evenodd;stroke:#000000;stroke-width:0.52916667;stroke-miterlimit:4;stroke-dasharray:none"
       id="path825"
       sodipodi:cx="13.568596"
       sodipodi:cy="273.96164"
       sodipodi:expansion="1"
       sodipodi:revolution="0.40000001"
       sodipodi:radius="21.671089"
       sodipodi:argument="-1.0077444"
       sodipodi:t0="0"
       d="m 13.568596,273.96164 c 4.34977,-6.89117 11.435182,2.46354 11.453577,7.2296 0.02446,6.33621 -4.525642,11.77255 -10.040183,14.39535" />
  </g>
</svg>
